<svg width="100pt" height="100pt" viewBox="0 0 100 100" xmlns="http://www.w3.org/2000/svg"><path d="M91 16.5c-13.875-2.063-27.625-.063-41 5.969-13.344-6.031-27.125-8.031-41-5.969a3.103 3.103 0 0 0-2.656 3.094v50.969c0 .906.375 1.75 1.031 2.344s1.563.875 2.438.78c1.75-.218 3.562-.312 5.437-.343v7.813a3.13 3.13 0 0 0 1.063 2.375c.593.5 1.312.75 2.062.75.125 0 .281 0 .438-.032L50 79.97l31.188 4.28c.156.032.312.032.437.032.75 0 1.469-.25 2.063-.75a3.13 3.13 0 0 0 1.062-2.375v-7.813c1.875.031 3.688.125 5.438.344.875.094 1.78-.188 2.437-.781s1.031-1.438 1.031-2.344v-50.97A3.103 3.103 0 0 0 91 16.5zm-44.125 56c-10.562-3.375-19.969-5.156-28.5-5.375-.688-.063-1.344-.063-2-.063-1.281 0-2.563.032-3.781.094V22.344c11.562-1.25 23.062.625 34.28 5.531zm40.531-5.344a59.287 59.287 0 0 0-5.781-.031c-8.531.219-17.938 2-28.5 5.375V27.875c11.219-4.938 22.75-6.781 34.28-5.531z"/></svg>