<svg xmlns="http://www.w3.org/2000/svg" version="1.1" xlink="http://www.w3.org/1999/xlink" xmlns:svgjs="http://svgjs.com/svgjs" width="234.58171143950344" height="147"><defs id="SvgjsDefs53633"><linearGradient id="SvgjsLinearGradient2yxCG14O5" gradientUnits="userSpaceOnUse" x1="11.029921377193984" y1="88.96801056038142" x2="88.97007115641385" y2="11.027860781161534"><stop id="SvgjsStop53636" stop-color="#99b5e6" offset="0.05"/><stop id="SvgjsStop53637" stop-color="#336bcc" offset="0.95"/></linearGradient></defs><g id="SvgjsG53634" transform="scale(0.6237382313794662)" opacity="1"><g id="SvgjsG53638" class="7z9FMO9hg" transform="translate(80.35956278000991, -33.84310464351346) scale(2.1537089052041556)" light-content="false" non-strokable="false" fill="url(#SvgjsLinearGradient2yxCG14O5)"><path d="M91 16.5c-13.875-2.063-27.625-.063-41 5.969-13.344-6.031-27.125-8.031-41-5.969a3.103 3.103 0 0 0-2.656 3.094v50.969c0 .906.375 1.75 1.031 2.344s1.563.875 2.438.78c1.75-.218 3.562-.312 5.437-.343v7.813a3.13 3.13 0 0 0 1.063 2.375c.593.5 1.312.75 2.062.75.125 0 .281 0 .438-.032L50 79.97l31.188 4.28c.156.032.312.032.437.032.75 0 1.469-.25 2.063-.75a3.13 3.13 0 0 0 1.062-2.375v-7.813c1.875.031 3.688.125 5.438.344.875.094 1.78-.188 2.437-.781s1.031-1.438 1.031-2.344v-50.97A3.103 3.103 0 0 0 91 16.5zm-44.125 56c-10.562-3.375-19.969-5.156-28.5-5.375-.688-.063-1.344-.063-2-.063-1.281 0-2.563.032-3.781.094V22.344c11.562-1.25 23.062.625 34.28 5.531zm40.531-5.344a59.287 59.287 0 0 0-5.781-.031c-8.531.219-17.938 2-28.5 5.375V27.875c11.219-4.938 22.75-6.781 34.28-5.531z"/></g><g id="SvgjsG53639" class="text" transform="translate(186.93, 221.26578930490317) scale(1)" light-content="false" fill="#2b2b2b"><path d="M-163.55 0L-156.69 0L-156.69 -32.75L-165.63 -32.75L-165.63 -17.34C-165.63 -13.48 -166.19 -10.71 -167.3 -9.04C-168.41 -7.37 -170.22 -6.53 -172.72 -6.53C-174.56 -6.53 -175.89 -7.12 -176.73 -8.31C-177.57 -9.49 -177.99 -11.26 -177.99 -13.62L-177.99 -32.75L-186.93 -32.75L-186.93 -11.4C-186.93 -7.53 -185.95 -4.57 -184 -2.5C-182.05 -0.44 -179.15 0.59 -175.3 0.59C-173.05 0.59 -171.05 0.17 -169.29 -0.66C-167.53 -1.49 -166.18 -2.67 -165.22 -4.19L-164.75 -4.19Z M-129.1 -33.37C-133.2 -33.37 -136.29 -31.75 -138.38 -28.51L-138.74 -28.51C-138.5 -31.47 -138.38 -33.63 -138.38 -34.98L-138.38 -45.59L-147.32 -45.59L-147.32 0L-140.49 0L-139 -3.6L-138.38 -3.6C-136.2 -0.81 -133.18 0.59 -129.33 0.59C-125.44 0.59 -122.37 -0.9 -120.12 -3.87C-117.86 -6.84 -116.73 -11.03 -116.73 -16.44C-116.73 -21.69 -117.83 -25.83 -120.01 -28.84C-122.2 -31.86 -125.23 -33.37 -129.1 -33.37ZM-131.97 -26.22C-130.07 -26.22 -128.58 -25.42 -127.49 -23.8C-126.39 -22.19 -125.84 -19.78 -125.84 -16.55C-125.84 -13.33 -126.39 -10.87 -127.47 -9.18C-128.55 -7.5 -130.01 -6.65 -131.85 -6.65C-134.12 -6.65 -135.77 -7.41 -136.82 -8.94C-137.86 -10.46 -138.38 -12.98 -138.38 -16.49L-138.38 -17.46C-138.34 -20.59 -137.82 -22.83 -136.8 -24.18C-135.79 -25.54 -134.17 -26.22 -131.97 -26.22Z M-88.55 0L-82.31 0L-82.31 -21.83C-82.31 -25.73 -83.48 -28.64 -85.83 -30.56C-88.17 -32.47 -91.54 -33.43 -95.93 -33.43C-100.52 -33.43 -104.7 -32.44 -108.47 -30.47L-105.51 -24.43C-101.98 -26.02 -98.9 -26.81 -96.28 -26.81C-92.89 -26.81 -91.19 -25.15 -91.19 -21.83L-91.19 -20.39L-96.87 -20.21C-101.77 -20.04 -105.44 -19.13 -107.87 -17.48C-110.3 -15.83 -111.52 -13.26 -111.52 -9.79C-111.52 -6.46 -110.62 -3.91 -108.81 -2.11C-107 -0.31 -104.53 0.59 -101.38 0.59C-98.82 0.59 -96.75 0.22 -95.16 -0.51C-93.56 -1.25 -92.02 -2.56 -90.51 -4.45L-90.28 -4.45ZM-91.19 -15.18L-91.19 -12.48C-91.19 -10.51 -91.81 -8.93 -93.05 -7.73C-94.29 -6.54 -95.94 -5.95 -98.01 -5.95C-100.9 -5.95 -102.35 -7.21 -102.35 -9.73C-102.35 -11.48 -101.71 -12.79 -100.44 -13.65C-99.17 -14.51 -97.24 -14.98 -94.64 -15.06Z M-55.12 0.59C-52.56 0.59 -50.34 -0.09 -48.44 -1.44C-46.55 -2.78 -45.09 -4.75 -44.06 -7.32C-43.04 -9.9 -42.52 -12.94 -42.52 -16.44C-42.52 -21.75 -43.62 -25.9 -45.81 -28.89C-47.99 -31.87 -51.02 -33.37 -54.89 -33.37C-58.99 -33.37 -62.08 -31.75 -64.17 -28.51L-64.58 -28.51L-65.84 -32.75L-73.11 -32.75L-73.11 14.41L-64.17 14.41L-64.17 1.14C-64.17 0.71 -64.33 -0.87 -64.64 -3.6L-64.17 -3.6C-61.99 -0.81 -58.97 0.59 -55.12 0.59ZM-57.76 -26.22C-55.65 -26.22 -54.1 -25.42 -53.12 -23.8C-52.13 -22.19 -51.64 -19.78 -51.64 -16.55C-51.64 -9.95 -53.64 -6.65 -57.64 -6.65C-59.91 -6.65 -61.56 -7.41 -62.61 -8.94C-63.65 -10.46 -64.17 -12.98 -64.17 -16.49L-64.17 -17.46C-64.14 -20.59 -63.61 -22.83 -62.59 -24.18C-61.58 -25.54 -59.97 -26.22 -57.76 -26.22Z M-14.34 0L-8.1 0L-8.1 -21.83C-8.1 -25.73 -9.27 -28.64 -11.62 -30.56C-13.96 -32.47 -17.33 -33.43 -21.72 -33.43C-26.31 -33.43 -30.49 -32.44 -34.26 -30.47L-31.3 -24.43C-27.77 -26.02 -24.69 -26.81 -22.08 -26.81C-18.68 -26.81 -16.98 -25.15 -16.98 -21.83L-16.98 -20.39L-22.66 -20.21C-27.56 -20.04 -31.23 -19.13 -33.66 -17.48C-36.09 -15.83 -37.31 -13.26 -37.31 -9.79C-37.31 -6.46 -36.41 -3.91 -34.6 -2.11C-32.79 -0.31 -30.32 0.59 -27.17 0.59C-24.61 0.59 -22.54 0.22 -20.95 -0.51C-19.36 -1.25 -17.81 -2.56 -16.3 -4.45L-16.07 -4.45ZM-16.98 -15.18L-16.98 -12.48C-16.98 -10.51 -17.6 -8.93 -18.84 -7.73C-20.08 -6.54 -21.73 -5.95 -23.8 -5.95C-26.69 -5.95 -28.14 -7.21 -28.14 -9.73C-28.14 -11.48 -27.5 -12.79 -26.24 -13.65C-24.97 -14.51 -23.03 -14.98 -20.43 -15.06Z M19.38 -33.37C17.35 -33.37 15.47 -32.81 13.74 -31.68C12.01 -30.56 10.64 -29.08 9.62 -27.25L9.18 -27.25L7.87 -32.75L1.1 -32.75L1.1 0L10.03 0L10.03 -16.67C10.03 -19.31 10.83 -21.36 12.42 -22.82C14.01 -24.29 16.24 -25.02 19.09 -25.02C20.12 -25.02 21 -24.92 21.72 -24.73L22.4 -33.11C21.6 -33.28 20.59 -33.37 19.38 -33.37Z M40.44 0.59C42.69 0.59 44.55 0.41 46.03 0.06C47.5 -0.29 48.96 -0.93 50.41 -1.85L50.41 -9.49C48.94 -8.52 47.48 -7.8 46.01 -7.34C44.55 -6.88 42.95 -6.65 41.24 -6.65C36.59 -6.65 34.26 -9.85 34.26 -16.26C34.26 -22.86 36.59 -26.16 41.24 -26.16C42.45 -26.16 43.66 -25.98 44.87 -25.62C46.08 -25.26 47.39 -24.79 48.79 -24.23L51.43 -31.14C48.42 -32.63 45.02 -33.37 41.24 -33.37C36.06 -33.37 32.08 -31.9 29.31 -28.96C26.54 -26.02 25.15 -21.77 25.15 -16.2C25.15 -5.01 30.25 0.59 40.44 0.59Z M57.61 -41.22C57.61 -38.29 59.23 -36.83 62.48 -36.83C64.1 -36.83 65.31 -37.21 66.12 -37.98C66.93 -38.75 67.34 -39.83 67.34 -41.22C67.34 -44.13 65.72 -45.59 62.48 -45.59C59.23 -45.59 57.61 -44.13 57.61 -41.22ZM66.93 0L66.93 -32.75L57.99 -32.75L57.99 0Z M97.1 0L103.34 0L103.34 -21.83C103.34 -25.73 102.17 -28.64 99.83 -30.56C97.49 -32.47 94.12 -33.43 89.72 -33.43C85.13 -33.43 80.95 -32.44 77.18 -30.47L80.14 -24.43C83.68 -26.02 86.75 -26.81 89.37 -26.81C92.77 -26.81 94.47 -25.15 94.47 -21.83L94.47 -20.39L88.78 -20.21C83.88 -20.04 80.21 -19.13 77.78 -17.48C75.35 -15.83 74.14 -13.26 74.14 -9.79C74.14 -6.46 75.04 -3.91 76.85 -2.11C78.65 -0.31 81.13 0.59 84.27 0.59C86.83 0.59 88.91 0.22 90.5 -0.51C92.09 -1.25 93.64 -2.56 95.14 -4.45L95.38 -4.45ZM94.47 -15.18L94.47 -12.48C94.47 -10.51 93.85 -8.93 92.61 -7.73C91.37 -6.54 89.71 -5.95 87.64 -5.95C84.75 -5.95 83.31 -7.21 83.31 -9.73C83.31 -11.48 83.94 -12.79 85.21 -13.65C86.48 -14.51 88.41 -14.98 91.01 -15.06Z M121.48 0L121.48 -45.59L112.54 -45.59L112.54 0Z M144.42 -27.01C146.31 -27.01 147.82 -26.41 148.93 -25.21C150.04 -24.01 150.62 -22.3 150.66 -20.1L138.12 -20.1C138.28 -22.3 138.89 -24.01 139.97 -25.21C141.04 -26.41 142.52 -27.01 144.42 -27.01ZM145.68 0.59C148.24 0.59 150.41 0.4 152.18 0.01C153.96 -0.37 155.63 -0.95 157.19 -1.73L157.19 -8.64C155.28 -7.74 153.44 -7.09 151.68 -6.68C149.93 -6.27 148.06 -6.06 146.09 -6.06C143.55 -6.06 141.58 -6.78 140.17 -8.2C138.76 -9.63 138.01 -11.61 137.92 -14.15L159.04 -14.15L159.04 -18.49C159.04 -23.13 157.75 -26.78 155.17 -29.41C152.59 -32.05 148.99 -33.37 144.36 -33.37C139.52 -33.37 135.72 -31.87 132.98 -28.87C130.23 -25.87 128.86 -21.63 128.86 -16.14C128.86 -10.81 130.35 -6.69 133.32 -3.78C136.28 -0.87 140.41 0.59 145.68 0.59Z M189.16 -9.73C189.16 -11.35 188.87 -12.74 188.31 -13.92C187.74 -15.09 186.86 -16.12 185.67 -17.02C184.48 -17.92 182.6 -18.89 180.04 -19.92C177.17 -21.07 175.31 -21.94 174.46 -22.53C173.61 -23.12 173.19 -23.81 173.19 -24.61C173.19 -26.04 174.51 -26.75 177.14 -26.75C178.63 -26.75 180.08 -26.52 181.51 -26.07C182.93 -25.63 184.47 -25.05 186.11 -24.35L188.8 -30.79C185.07 -32.51 181.24 -33.37 177.29 -33.37C173.15 -33.37 169.95 -32.57 167.7 -30.98C165.44 -29.39 164.31 -27.14 164.31 -24.23C164.31 -22.53 164.58 -21.1 165.12 -19.94C165.65 -18.77 166.51 -17.74 167.7 -16.85C168.88 -15.95 170.73 -14.97 173.25 -13.92C175 -13.17 176.41 -12.52 177.47 -11.97C178.52 -11.41 179.26 -10.91 179.69 -10.47C180.12 -10.03 180.34 -9.46 180.34 -8.76C180.34 -6.88 178.72 -5.95 175.47 -5.95C173.89 -5.95 172.06 -6.21 169.98 -6.74C167.9 -7.27 166.03 -7.92 164.37 -8.7L164.37 -1.32C165.83 -0.69 167.41 -0.22 169.09 0.1C170.77 0.42 172.8 0.59 175.18 0.59C179.83 0.59 183.32 -0.29 185.65 -2.05C187.99 -3.81 189.16 -6.37 189.16 -9.73Z"/></g></g></svg>