<svg xmlns="http://www.w3.org/2000/svg"  viewBox="0 0 50 50" width="250px" height="250px"><path d="M12 32H6v-6h6V32zM8 30h2v-2H8V30zM25.915 42.799c-.062 0-.122 0-.183-.001-3.63-.047-8.894-1.332-13.358-7.191-.283-.373-.271-.892.03-1.25s.809-.458 1.227-.244c.08.043 8.123 4.15 13.008 1.113 2.701-1.676 4.018-5.311 3.914-10.803-.01-.514.373-.952.884-1.012.129-.012 2.63-.272 5.312 1.854-.423-1.154-1.352-2.518-3.329-3.672-3.146-1.836-7.083-1.928-10.27-.244-1.497.792-2.947 1.897-4.31 3.288-.495.506-1.188.784-1.894.77-.697-.018-1.361-.328-1.822-.851-.768-.871-.846-2.147-.19-3.104l.502-.733c-1.37-1.512-2.631-4.458-.368-8.078 3.107-4.973 10.857-6.997 16.508-4.399 2.882-1.168 8.438-1.75 11.562 3.526.152.258.182.57.079.852-.102.281-.324.502-.606.602l-3.039 1.072c1.527 2.152 4.438 7.1 3.851 12.892-.464 4.565-3 8.636-7.539 12.097C32.9 41.554 29.367 42.799 25.915 42.799zM16.939 37.527c2.579 2.131 5.531 3.229 8.818 3.271.053.001.105.001.157.001 3.018 0 6.119-1.101 8.754-3.108 4.076-3.109 6.351-6.707 6.761-10.694.693-6.746-4.198-12.475-4.248-12.531-.217-.25-.296-.592-.212-.911.085-.32.322-.578.634-.688l3.104-1.096c-3.288-3.993-8.492-1.634-8.729-1.523-.279.13-.605.125-.881-.016-4.732-2.423-11.702-.74-14.334 3.47-2.295 3.673.29 5.846.592 6.081.417.325.515.922.216 1.357l-.986 1.441c-.138.201-.121.47.04.653.129.146.29.172.374.174.088.011.263-.017.413-.17 1.508-1.538 3.124-2.769 4.803-3.656 3.796-2.007 8.475-1.897 12.213.285 5.628 3.283 4.595 8.149 4.549 8.355-.087.38-.386.675-.767.756-.387.083-.774-.066-1.009-.378-1.733-2.311-3.58-2.967-4.645-3.146-.081 5.664-1.716 9.521-4.867 11.475C24.351 38.997 20.071 38.433 16.939 37.527z"/></svg>